<svg width="394" height="108" viewBox="0 0 394 108" fill="none" xmlns="http://www.w3.org/2000/svg">
<path fill-rule="evenodd" clip-rule="evenodd" d="M360.784 71.802C359.26 70.026 357.314 68.25 355.112 68.25C352.404 68.25 349.358 69.94 349.358 74.254C349.358 75.862 350.118 77.892 351.642 79.668C355.79 84.742 362.644 88.888 372.292 88.888C383.716 88.888 393.28 82.458 393.28 70.956C393.28 48.542 363.49 50.742 363.49 40.762C363.49 36.87 366.114 34.672 370.514 34.672C373.9 34.672 376.608 35.518 378.554 37.124C380.754 38.816 382.448 42.114 386.086 42.114C389.132 42.114 391.84 40.084 391.84 37.04C391.84 32.642 387.44 28.498 383.632 26.3C380.416 24.438 376.184 23 370.432 23C360.782 23.168 351.304 28.412 351.304 40.93C351.304 61.144 381.094 57.592 381.094 70.28C381.094 74.846 377.538 77.13 372.208 77.13C367.468 77.13 364.084 75.016 360.782 71.802H360.784ZM153.996 48.458C150.016 49.218 147.48 50.826 147.48 54.632C147.48 58.522 149.934 60.638 153.91 61.144C160.766 61.906 163.136 64.274 163.136 69.518C163.136 74.338 159.156 76.96 151.54 76.96H139.1V34.164H152.556C157.636 34.164 160.174 37.208 160.174 41.776C160.174 45.752 157.804 47.782 153.994 48.456L153.996 48.458ZM224.934 71.21C224.934 77.046 230.094 88.04 244.314 88.04C258.36 88.04 265.47 79.668 265.47 64.612V30.952C265.47 26.552 262.93 23.932 259.376 23.932C255.568 23.932 253.284 26.552 253.284 30.952V64.866C253.284 72.562 250.66 76.2 244.652 76.286C234.412 76.454 238.812 65.626 231.534 65.036C228.318 64.782 224.934 66.896 224.934 71.21ZM338.09 46.344C339.53 46.344 341.306 45.584 342.322 43.384C343.93 39.916 345.538 33.318 345.538 30.358C345.538 26.298 343.676 23.762 339.274 23.762C334.79 23.93 332.928 26.806 332.928 32.134V36.954C332.928 42.96 334.62 46.344 338.09 46.344ZM205.13 50.234L191.508 27.568C190.154 25.37 188.714 23.932 186.092 23.932C182.622 23.932 179.912 26.3 179.912 29.43C179.912 31.376 180.506 32.812 181.522 34.42L199.04 62.5V81.276C199.04 85.676 201.832 88.296 205.048 88.296C208.688 88.296 211.226 85.676 211.226 81.276V62.5L228.744 34.42C229.76 32.812 230.352 31.376 230.352 29.43C230.352 26.3 227.644 23.932 224.172 23.932C221.552 23.932 220.112 25.372 218.758 27.568L205.132 50.236L205.13 50.234ZM164.574 54.124C169.652 50.826 172.274 46.26 172.274 40.93C172.274 30.442 164.914 23 150.018 23H133.092C129.452 23 127 25.368 127 29.004V82.29C127 85.842 129.454 88.294 133.092 88.294L149.932 88.464C169.228 88.632 175.576 80.344 175.576 70.194C175.576 62.92 171.428 57.17 164.574 54.378C164.574 54.378 164.496 54.344 164.496 54.262C164.496 54.17 164.574 54.124 164.574 54.124ZM301.352 87.956C286.458 87.956 277.826 78.99 277.826 61.144V30.95C277.826 26.552 280.28 23.93 283.918 23.93C287.472 23.93 290.012 26.552 290.012 30.95V60.214C290.012 72.224 293.904 76.03 301.352 76.03C308.798 76.03 312.692 72.224 312.692 60.214V30.95C312.692 26.552 315.232 23.93 318.786 23.93C322.424 23.93 324.878 26.552 324.878 30.95V61.144C324.878 78.99 316.246 87.956 301.352 87.956Z" fill="#81AFDD"/>
<path fill-rule="evenodd" clip-rule="evenodd" d="M102.23 0C104.226 0 106.05 0.768 107.438 2.13C108.119 2.79774 108.661 3.59347 109.034 4.47144C109.406 5.34942 109.601 6.29233 109.608 7.246V100.754C109.608 102.714 108.828 104.504 107.438 105.868C106.044 107.227 104.177 107.99 102.23 107.998H7.376C6.41086 108.002 5.4543 107.817 4.56103 107.451C3.66775 107.086 2.85526 106.548 2.17 105.868C1.48932 105.2 0.947222 104.405 0.574828 103.527C0.202434 102.65 0.00708486 101.707 0 100.754L0 7.246C0 5.286 0.78 3.494 2.17 2.13C3.56353 0.771865 5.43014 0.00815453 7.376 0L102.23 0Z" fill="#81AFDD"/>
<path fill-rule="evenodd" clip-rule="evenodd" d="M72.116 83.79L49.38 90.27C47.47 90.78 45.474 89.758 44.866 87.882L27.684 29.066C27.164 27.192 28.204 25.146 30.2 24.634L53.72 17.9C59.186 16.28 65 17.9 68.82 22.078C71.944 25.23 73.506 29.492 73.332 33.926C73.158 38.272 71.076 42.45 67.778 45.262C77.498 45.858 85.394 53.19 86.438 62.736C87.478 72.196 81.402 81.062 72.118 83.79" fill="#81AFDD"/>
<path fill-rule="evenodd" clip-rule="evenodd" d="M47.818 94.872C44.606 94.872 41.742 92.74 40.874 89.672L23.26 29.408C22.132 25.572 24.388 21.65 28.206 20.542L52.42 13.64C53.894 13.214 55.456 13.044 57.106 13.044C60.1142 13.0412 63.0897 13.6693 65.8401 14.8878C68.5905 16.1062 71.0549 17.888 73.074 20.118C75.764 23.358 77.326 27.364 77.76 31.54C78.1075 35.3206 77.3221 39.1191 75.504 42.452C80.383 44.3329 84.5229 47.7411 87.306 52.168C90.344 57.028 91.558 62.738 90.866 68.448C90.256 72.882 88.26 76.974 85.224 80.298C82.3521 83.7922 78.5207 86.37 74.202 87.714L49.816 94.618C49.163 94.7815 48.4931 94.8674 47.82 94.874L47.818 94.872ZM57.884 17.218C56.496 17.218 55.02 17.388 53.718 17.816L30.114 24.548C28.204 25.146 27.076 27.108 27.598 28.982L44.78 87.796C45.04 88.736 45.648 89.502 46.516 89.928C47.384 90.354 48.338 90.524 49.292 90.268L72.032 83.79C81.402 81.148 87.392 72.198 86.35 62.736C85.308 53.19 77.41 45.858 67.69 45.262C69.3092 43.9168 70.6371 42.2555 71.5924 40.3796C72.5477 38.5037 73.1104 36.4527 73.246 34.352C73.506 29.832 71.856 25.402 68.732 22.078C67.3719 20.5448 65.7013 19.3186 63.831 18.4807C61.9606 17.6427 59.9334 17.2123 57.884 17.218Z" fill="#FEFEFE" fill-opacity="0.5"/>
<path fill-rule="evenodd" clip-rule="evenodd" d="M79.146 68.106C79.146 58.134 71.076 50.12 60.922 49.95C62.5011 48.6003 63.7915 46.9458 64.7159 45.0856C65.6404 43.2254 66.1798 41.1977 66.302 39.124C66.562 34.948 65.002 30.856 62.136 27.788C58.492 23.612 52.676 21.992 47.296 23.526L27.596 29.152L44.78 87.796C45.04 88.736 45.648 89.502 46.516 89.928C47.384 90.354 48.338 90.524 49.292 90.268L65.434 85.666L65.694 85.58C73.68 83.364 79.146 76.204 79.146 68.106Z" fill="#81AFDD"/>
</svg>
