<svg width="150" height="35" viewBox="0 0 150 35" fill="none" xmlns="http://www.w3.org/2000/svg">
<path d="M123.505 26.2096C122.319 26.2096 120.468 25.1877 119.765 23.8224C119.099 22.5771 118.933 21.8931 118.933 19.0964L118.931 18.5733C118.927 17.5096 118.92 16.4104 119.099 15.2201C119.688 11.4192 122.571 10.5862 123.631 10.5862C126.757 10.5862 127.865 12.67 127.865 18.5463C127.865 26.2096 125.547 26.2096 123.505 26.2096ZM123.971 9.31398C121.857 9.31398 119.974 10.4838 118.847 12.4206V9.61832C118.858 9.34097 118.671 9.32701 118.546 9.34656C118.525 9.35014 118.508 9.35495 118.488 9.35961C118.46 9.36707 118.441 9.3736 118.441 9.3736L118.438 9.36858C117.694 9.524 116.991 9.61986 116.3 9.65429C115.495 9.73805 114.334 9.74736 114.334 9.74736L114.222 9.74163C113.72 9.78911 113.493 9.91845 113.545 10.2628C113.585 10.5197 113.933 10.6146 114.148 10.6695C114.559 10.7505 114.62 10.7728 115.072 10.9124C115.2 10.9431 115.37 10.9701 115.37 11.2828L115.374 11.1842C115.374 12.8175 115.365 31.9244 115.373 33.2246C115.38 34.5247 115.422 34.4521 116.713 34.4521L119.143 34.455H119.222C120.362 34.455 120.886 34.441 120.815 33.9571C120.774 33.6956 120.379 33.6211 120.202 33.5699C119.354 33.3326 118.943 32.5536 118.913 31.6025C118.913 31.6025 118.928 26.534 118.936 24.6214C120.064 26.413 121.649 27.3102 123.801 27.3102C129.11 27.3102 131.974 22.8615 131.974 18.6734C131.974 11.806 127.187 9.31398 123.971 9.31398ZM67.5599 20.7372H67.5757L67.559 20.7408C67.5599 20.7401 67.5599 20.738 67.5599 20.7372ZM79.7407 21.3831C79.7407 18.5306 78.4349 17.0955 75.2362 16.4301C68.8061 15.129 68.5213 14.5222 68.5213 13.3802C68.5213 13.0991 68.6926 12.1284 69.4576 11.383C70.1463 10.711 71.1254 10.3871 72.3706 10.4169C75.2194 10.5593 76.3865 12.7911 76.8639 14.6394C76.8639 14.6394 76.8761 14.6738 76.8881 14.7353C77.0128 15.4044 78.0487 15.4519 78.0487 14.7353V9.93854L78.0403 9.93711C78.0345 9.63464 77.9035 9.47363 77.6326 9.44013C77.6122 9.43869 77.5926 9.44299 77.5731 9.44515C77.5695 9.44443 77.5674 9.44228 77.5619 9.44013C77.2716 9.40756 77.0752 9.80402 76.97 9.97899C76.782 10.2619 76.4833 10.7105 76.4042 10.8306C75.1263 9.83101 73.815 9.31356 72.5018 9.31356C67.8884 9.31356 66.6562 12.6687 66.6562 14.651C66.6562 18.2425 68.9336 18.7851 71.5683 19.4124L72.0039 19.5166C75.2604 20.3403 77.7509 21.0969 77.7509 22.6968C77.7509 23.472 77.453 24.157 76.9858 24.7126L76.9844 24.7119L76.9118 24.7919C76.1096 25.6519 74.8839 26.1889 73.714 26.1889C70.7889 26.1889 68.5143 24.1805 67.6283 20.8207L67.6041 20.7286L67.5991 20.7293C67.5451 20.532 67.4595 20.1048 67.1737 20.062C67.1039 20.0499 67.0546 20.0545 67.0146 20.0663C66.7503 20.0738 66.6451 20.2897 66.6004 20.7373H66.6032C66.5716 20.9346 66.5846 21.0109 66.5846 21.0109V26.4899L66.5863 26.4906C66.5761 26.9736 66.6813 27.1988 67.0415 27.2091C67.2555 27.2155 67.4537 26.9019 67.558 26.6963C67.6873 26.4859 68.3416 25.4156 68.4561 25.2286C69.6958 26.5222 71.5404 27.3021 73.4483 27.3021C75.2314 27.3021 76.8546 26.7121 78.017 25.6399L78.1054 25.5404L78.1025 25.5396C79.1356 24.5029 79.7407 23.0695 79.7407 21.3831ZM107.754 21.722C107.754 23.3404 107.253 23.8281 106.923 24.1501L106.86 24.2134C105.868 25.0798 105.007 25.4056 103.69 25.4056C101.786 25.4056 100.556 24.1417 100.556 22.1882C100.556 19.4492 102.983 18.016 107.754 17.9183L107.754 21.722ZM114.412 23.5275C114.363 23.038 114.225 22.8714 113.883 22.9226C113.595 22.9682 113.505 23.4019 113.449 23.5992H113.453L113.43 23.6746C113.076 24.8975 112.631 25.4903 112.072 25.4903C111.347 25.4903 111.309 25.0222 111.309 23.6699V13.5925C111.309 11.8884 111.309 9.31322 105.425 9.31322C100.395 9.31322 98.5208 11.8856 98.5208 13.5059C98.5208 14.8191 99.2691 15.667 100.428 15.667C101.544 15.667 102.293 14.901 102.293 13.7609C102.293 12.7586 101.667 12.3147 101.291 12.0494C101.184 11.9731 101.022 11.8586 101.022 11.813C101.022 10.7483 103.815 10.4179 104.832 10.4179C105.71 10.4179 107.754 10.6562 107.754 12.8712V16.7726C101.129 16.8033 97.2542 19.077 97.1248 23.0305C97.1248 25.7928 98.9303 27.3107 102.208 27.3107C104.502 27.3107 106.494 26.4219 107.866 24.8351C108.239 26.4191 109.218 27.3107 110.676 27.3107C112.668 27.3107 114.269 25.7667 114.4 23.7202L114.409 23.5843L114.412 23.5275ZM137.511 12.9958C137.629 12.591 138.792 10.4179 141.161 10.4179C142.88 10.4179 144.929 11.0926 144.929 14.3118V15.6231H137.108C137.161 14.5501 137.293 13.6594 137.511 12.9958ZM149.046 21.049H149.05C149.068 20.5558 148.901 20.2998 148.505 20.3231C148.461 20.326 148.422 20.3343 148.383 20.3519C148.09 20.4217 147.967 20.8629 147.892 21.0686H147.895C147.875 21.1355 147.856 21.1998 147.842 21.2547H147.832L147.81 21.3561C147.209 24.1901 144.315 26.1668 142.092 26.1668C137.879 26.1668 137.053 23.4353 137.053 18.7158V17.1076H147.999C148.5 17.1076 149.149 17.2407 148.962 15.8707C148.428 11.9618 145.429 9.31311 141.288 9.31311C135.985 9.31311 132.817 14.2439 132.817 19.0108C132.817 23.976 137.261 27.3106 141.414 27.3106C145.423 27.3106 148.185 25.1608 148.99 21.4101L149.024 21.2547H149.02C149.037 21.1793 149.046 21.1095 149.046 21.049ZM96.6178 21.0246H96.6206C96.6384 20.5462 96.4782 20.2996 96.0939 20.3229C96.0511 20.3243 96.012 20.335 95.9757 20.3508C95.6918 20.4168 95.5736 20.844 95.501 21.0441H95.5039C95.4751 21.1316 95.4545 21.2154 95.4369 21.2787H95.4333L95.4035 21.3662C94.4003 24.376 92.1043 26.3155 89.6882 26.1899C87.6612 26.0726 86.3024 25.2853 85.6481 23.8501C85.6137 23.7701 84.7714 21.7636 84.7714 18.8226C84.7714 12.7127 86.1247 10.439 89.7673 10.439C90.805 10.439 93.2388 10.9435 93.2388 11.9207C93.2388 12.0212 93.0871 12.1431 92.9103 12.2836C92.5008 12.6131 91.8837 13.1092 91.8837 14.2502C91.8837 15.4954 92.7539 16.3665 94.0001 16.3665C95.3207 16.3665 96.0327 15.1455 96.0327 13.9961C96.0327 10.5777 91.9824 9.33804 89.2601 9.33804C87.0284 9.33804 80.6616 11.0793 80.6616 18.8226C80.6616 21.1903 82.2204 27.3337 89.342 27.3337C94.0885 27.1513 95.6781 24.0921 96.5343 21.4462L96.5892 21.2787H96.5808C96.604 21.1837 96.6178 21.0991 96.6178 21.0246Z" fill="#81AFDD"/>
<path d="M41.6782 10.6328C42.661 10.6328 43.2269 11.2749 43.2269 12.254C43.2269 16.3676 38.66 18.1778 35.1867 18.4058C35.7935 15.9153 38.7745 10.6328 41.6782 10.6328ZM47.7128 16.5184C47.2279 17.7404 46.2553 19.5282 45.4912 20.5231C45.3172 20.7511 41.6568 25.1961 37.7898 25.1961C36.0169 25.1961 34.6981 24.1779 34.6981 22.2914C34.6981 21.3086 34.7698 20.4589 34.995 19.4761C39.0332 19.0982 46.246 17.235 46.246 12.1042C46.246 10.0297 44.2469 9.42474 42.5466 9.42474C37.0751 9.42474 31.679 16.1024 31.679 22.1406C31.679 24.6684 32.8479 27.2333 36.3212 27.2333C41.7006 27.2333 45.0538 22.9038 46.1781 21.2658C46.4173 20.9159 46.8361 20.1704 47.0548 19.7628M57.6149 25.1097C57.0686 25.5713 55.8206 26.2256 54.7643 26.2256C51.4911 26.2256 50.5939 24.3772 50.5939 17.6279C50.5939 14.1286 50.9001 10.3928 54.5511 10.3928C56.9635 10.3928 58.7001 11.9313 59.44 14.7261C59.722 15.6726 59.7434 17.8383 59.7434 18.4805C59.7434 22.8398 59.2232 23.6699 57.6149 25.1097ZM65.9194 26.4052C65.8878 26.1977 65.5955 26.113 65.3843 26.0506L65.2549 26.0115C64.6351 25.7928 64.0683 25.012 63.8403 24.5066C63.7565 24.273 63.7193 23.9305 63.7016 23.6857C63.6848 23.0008 63.6467 21.3777 63.6001 19.3125L63.589 2.46995C63.5853 2.46995 63.589 2.19819 63.589 2.1954C63.589 0.944563 63.7128 1.00971 62.1408 0.960386L59.4409 0.956802H59.3609C58.2162 0.956802 57.6866 0.971718 57.762 1.45937C57.8029 1.72182 58.1976 1.79721 58.3753 1.84746C59.2287 2.08665 59.642 2.86935 59.6699 3.82516L59.6578 12.192H59.5722C58.42 9.9509 55.8392 9.41204 54.4786 9.41204C49.4101 9.41204 46.5603 13.4987 46.5603 18.2656C46.5603 18.7067 46.5873 19.1414 46.6469 19.5667C46.7381 20.2173 47.0136 21.3369 46.9987 21.2857C48.0327 24.7469 50.6851 27.2588 54.0495 27.2467C56.0207 27.2402 58.5131 26.3774 59.6103 24.4965H59.6978C59.6978 24.4965 59.7732 24.8874 59.7732 25.7446C59.7732 26.9219 59.6857 26.907 60.9924 26.907H63.6597V26.9041L64.1465 26.9055C65.0911 26.9055 65.6784 26.8953 65.8627 26.6822C65.9055 26.6328 65.9269 26.5705 65.9269 26.4895C65.9269 26.4635 65.924 26.4359 65.9194 26.4052ZM31.1301 25.963C30.3539 25.6913 29.762 24.7745 29.7462 24.3064C29.7303 23.8356 29.2548 3.02088 29.2548 3.02088C29.2334 1.94315 29.2827 1.15951 28.9942 1.05248C28.6461 0.921261 27.1747 0.951975 26.7857 0.951975C25.8466 0.951975 25.1505 0.925939 24.982 1.12508C24.8005 1.33449 24.4608 2.08182 24.0774 3.09068L22.1732 7.33086C21.6809 8.29039 20.8405 9.92467 20.3463 10.8814L17.4574 16.4804C16.9614 17.439 16.1377 17.4483 15.6203 16.5018L12.603 10.9654C12.0865 10.0208 11.2424 8.47024 10.7268 7.52374L8.60946 3.05275C8.18135 2.06343 7.97566 1.29562 7.76626 1.11041C7.58757 0.950337 6.83279 0.950338 5.75599 0.956851H3.22361C1.96533 0.956851 1.39854 0.969906 1.48044 1.50223C1.52325 1.79353 1.9616 1.87729 2.15518 1.93034C2.9351 2.15092 3.21988 3.10207 3.21988 3.57392C3.21988 4.04206 3.20501 23.0056 3.11379 23.8358C3.09982 23.9754 3.07377 24.1187 3.04399 24.2667C3.03002 24.2731 3.017 24.2862 3.01328 24.3067C2.86437 25.1145 2.41206 25.7437 1.63122 25.9633C1.43856 26.0173 0.999283 26.1011 0.956472 26.3924C0.874572 26.9238 1.45811 26.9424 2.71546 26.9424L3.5661 26.9381C3.63497 26.9455 3.70757 26.9511 3.78574 26.9511C3.78574 26.9511 3.79227 26.9454 3.80436 26.9381H4.79926L6.88212 26.9424C8.13948 26.9424 8.72487 26.9237 8.6439 26.3924C8.59923 26.1011 8.16181 26.0173 7.96916 25.9633C7.18832 25.7437 6.87003 25.2523 6.58431 24.3067C6.58337 24.3031 6.58151 24.2983 6.58151 24.2918C6.4447 23.6822 6.37955 22.8558 6.37955 22.8558C6.3386 21.7771 6.31254 20.0135 6.32464 18.9367L6.32651 18.6035C6.33861 17.5257 6.36746 15.7621 6.39352 14.6844L6.4931 10.4358C6.5173 9.35902 6.95565 9.25292 7.46659 10.2013L10.2689 15.4075C10.7807 16.3577 13.4667 21.4393 13.946 22.4006C14.3546 23.2187 14.4393 23.5268 15.6994 23.5435C17.1103 23.5612 17.1103 23.1685 17.6901 21.9251C18.1154 21.0111 24.1258 9.18405 24.1258 9.18405C24.6153 8.22359 25.0397 8.31945 25.0676 9.39718C25.0676 9.39718 25.1439 23.819 25.0434 24.4658C25.0267 24.5645 25.0127 24.6343 25.0043 24.6827C24.7977 25.3053 24.3761 25.779 23.7228 25.9633C23.5283 26.0173 23.0937 26.101 23.0471 26.3923C22.968 26.9238 23.5497 26.9424 24.807 26.9424L27.426 26.9366L28.5977 26.9374L29.2082 26.9438C29.2231 26.9438 29.2352 26.9424 29.2501 26.9374L30.0431 26.9417C31.306 26.9417 31.8849 26.923 31.8048 26.3916C31.7602 26.1003 31.3199 26.03 31.1301 25.963Z" fill="#81AFDD"/>
</svg>
