<svg width="124" height="28" viewBox="0 0 124 28" fill="none" xmlns="http://www.w3.org/2000/svg">
<g clip-path="url(#clip0_103_4)">
<path d="M89.56 6.53V8H89.64C90.305 7.11132 91.2664 6.49043 92.35 6.25C93.484 5.93158 94.6905 5.98769 95.79 6.41C96.6202 6.69327 97.3268 7.25504 97.79 8C97.8621 8.10659 97.9289 8.21673 97.99 8.33C98.0214 8.2554 98.0617 8.18489 98.11 8.12C98.4794 7.59524 98.9486 7.14847 99.4908 6.80529C100.033 6.4621 100.638 6.22923 101.27 6.12C102.543 5.8527 103.868 6.02546 105.03 6.61C105.737 6.94436 106.347 7.45462 106.8 8.09195C107.254 8.72928 107.536 9.47234 107.62 10.25C107.686 10.6665 107.713 11.0884 107.7 11.51V21H103.45V12.78C103.444 12.4653 103.417 12.1513 103.37 11.84C103.305 11.4143 103.105 11.0208 102.799 10.7181C102.492 10.4154 102.096 10.2197 101.67 10.16C101.262 10.0635 100.835 10.0815 100.436 10.212C100.037 10.3426 99.6821 10.5806 99.41 10.9C99.0062 11.3773 98.7894 11.9849 98.8 12.61V21H94.46V12.74C94.4702 12.3366 94.4128 11.9344 94.29 11.55C94.1611 11.1514 93.9143 10.8014 93.5822 10.546C93.2501 10.2907 92.8483 10.1422 92.43 10.12C92.094 10.087 91.7547 10.1175 91.43 10.21C91.0258 10.3311 90.6636 10.563 90.3843 10.8793C90.1051 11.1957 89.92 11.5839 89.85 12C89.8289 12.2329 89.8289 12.4671 89.85 12.7V21H85.44V6.53H89.56ZM119.77 7.88V6.53H124V19.76C124.007 21.3634 123.589 22.94 122.79 24.33C122.406 25.0261 121.885 25.6379 121.26 26.1292C120.635 26.6205 119.917 26.9812 119.15 27.19C117.313 27.7289 115.357 27.7115 113.53 27.14C112.088 26.702 110.841 25.7802 110 24.53C109.63 24.0031 109.369 23.4084 109.23 22.78V22.57C109.246 22.5043 109.246 22.4357 109.23 22.37L113.07 21.27C113.118 21.3566 113.149 21.4517 113.16 21.55C113.339 22.1734 113.716 22.7218 114.234 23.113C114.751 23.5042 115.381 23.7172 116.03 23.72C116.548 23.7367 117.065 23.6657 117.56 23.51C118.065 23.3145 118.514 22.9949 118.863 22.5807C119.213 22.1666 119.452 21.6711 119.56 21.14C119.714 20.4311 119.768 19.7039 119.72 18.98C119.127 19.7214 118.271 20.2051 117.33 20.33C116.049 20.5983 114.717 20.4835 113.5 20C112.51 19.6451 111.621 19.0545 110.91 18.2792C110.199 17.5039 109.688 16.5672 109.42 15.55C109.121 14.6185 109.012 13.6363 109.102 12.662C109.191 11.6877 109.476 10.7415 109.94 9.88C110.312 9.11055 110.832 8.42206 111.47 7.85404C112.108 7.28602 112.853 6.84966 113.66 6.57C114.915 6.16119 116.262 6.11955 117.54 6.45C118.424 6.65954 119.211 7.16388 119.77 7.88ZM113.54 13.31V13.76C113.571 14.3112 113.759 14.8421 114.081 15.2903C114.404 15.7384 114.847 16.0853 115.36 16.29C115.822 16.477 116.324 16.5458 116.82 16.49C117.42 16.4825 118.001 16.2847 118.481 15.9252C118.961 15.5658 119.314 15.0632 119.49 14.49C119.644 13.9888 119.699 13.4622 119.65 12.94C119.625 12.4693 119.49 12.011 119.254 11.6024C119.019 11.1938 118.691 10.8464 118.297 10.5883C117.902 10.3302 117.453 10.1687 116.984 10.1169C116.515 10.065 116.041 10.1243 115.6 10.29C114.977 10.5047 114.441 10.9145 114.069 11.4586C113.698 12.0027 113.513 12.652 113.54 13.31ZM85.36 4.53V0H123.93C124.01 1.49559 124.01 2.99441 123.93 4.49C123.73 4.57 86 4.61 85.36 4.53ZM79 27.47V22.94H107.71V27.47H79ZM83.46 21H78.93V6.65H74.48V3.55H74.84C76.1018 3.51501 77.3145 3.0532 78.28 2.24C78.9054 1.72902 79.3447 1.02604 79.53 0.24V0.08H83.41L83.46 21ZM35.14 22.41H28.83C28.7216 22.428 28.6105 22.4038 28.5194 22.3425C28.4282 22.2811 28.3641 22.1872 28.34 22.08L25.11 12.57C25.11 12.45 25.03 12.33 24.95 12.12L24.62 13.02L21.62 22.02C21.6153 22.0768 21.5988 22.1321 21.5715 22.1822C21.5443 22.2323 21.5069 22.2762 21.4617 22.311C21.4165 22.3458 21.3646 22.3708 21.3092 22.3844C21.2538 22.398 21.1962 22.3999 21.14 22.39H14.84C15.04 21.9 15.2 21.39 15.36 20.92L21.15 5.53C21.27 5.25 21.39 5.12 21.71 5.12H28.1C28.2186 5.1046 28.3386 5.13399 28.4366 5.20242C28.5346 5.27085 28.6036 5.3734 28.63 5.49L35 22C35.0669 22.1289 35.1141 22.2671 35.14 22.41ZM68.78 22.41H62.43C62.15 22.41 62.03 22.33 61.95 22.08L58.71 12.57C58.71 12.45 58.63 12.33 58.55 12.12L58.39 12.61L55.19 22C55.1838 22.0615 55.1654 22.1211 55.1357 22.1753C55.106 22.2295 55.0656 22.2772 55.0171 22.3155C54.9686 22.3537 54.9128 22.3818 54.8532 22.3981C54.7935 22.4143 54.7312 22.4184 54.67 22.41H48.48C48.48 22.25 48.56 22.12 48.6 22L54.83 5.47C54.8609 5.34786 54.9368 5.24188 55.0425 5.17328C55.1482 5.10468 55.2759 5.07851 55.4 5.1H61.83C61.9358 5.09116 62.0414 5.1192 62.1289 5.17934C62.2164 5.23949 62.2804 5.32805 62.31 5.43L68.74 22.12C68.7354 22.2183 68.7489 22.3166 68.78 22.41ZM50.18 5.18V10.25H45.45V22.45H38.58V10.29H33.68V5.22L50.18 5.18ZM0 5.18H16.54V10.24H11.81V22.45H4.89V10.29H0V5.18Z" fill="#81AFDD"/>
</g>
<defs>
<clipPath id="clip0_103_4">
<rect width="124" height="27.58" fill="white"/>
</clipPath>
</defs>
</svg>
