<svg width="554" height="200" viewBox="0 0 554 200" fill="none" xmlns="http://www.w3.org/2000/svg">
<path d="M21.3333 17.3333V34.6667H10.6667H0V48V61.3333H10.6667H21.3333V99.0667C21.3333 136.8 21.3333 136.8 24.6667 143.6C30.6667 155.6 42.5333 161.067 59.3333 159.333C68 158.533 81.3333 154.133 81.3333 152.133C81.2 148.667 75.0667 129.6 74 129.6C73.3333 129.467 70.5333 130.133 67.8667 130.933C61.2 132.8 55.8667 130.267 53.7333 124C52.6667 120.933 52.1333 109.067 52.1333 90.2667L52 61.3333H64.6667H77.3333V47.3333V33.3333H64.6667H52V16.6667V-8.32626e-06H36.6667H21.3333V17.3333Z" fill="#81AFDD"/>
<path d="M123.2 34C100.533 38.9334 81.8667 56.5334 76 78.5334C73.4667 88.2667 74.1333 107.467 77.3333 117.467C81.0667 128.667 91.2 142.533 100.267 148.667C124.933 165.333 163.467 162.667 183.733 142.933C196.8 130.133 202.8 115.467 202.8 96C202.8 69.7334 190.933 50 168.8 39.4667C153.6 32.1334 139.333 30.4 123.2 34ZM154.133 67.7334C164.8 73.2 170.667 84.9334 170.667 100.533C170.533 117.067 164.667 127.333 152.267 132.933C142.533 137.467 129.467 136.8 121.2 131.467C104.533 120.4 101.067 92.2667 114.133 75.0667C117.333 70.8 122.667 67.3334 129.333 65.2C134.8 63.3334 148.267 64.8 154.133 67.7334Z" fill="#81AFDD"/>
<path d="M270.267 33.4667C262.667 35.2 253.2 40.5333 247.733 46.1333L242.667 51.0667V42.9333V34.6667H227.333H212V117.333V200H227.333H242.667V169.067V138.267L248.133 143.6C251.067 146.533 256.933 150.667 261.067 152.8C267.867 156.267 270 156.667 281.333 156.533C292.133 156.533 295.067 156 301.333 153.2C320.667 144.267 331.6 126 332.933 100C334.4 72 324 48.1333 306.533 39.3333C293.867 32.9333 281.333 30.8 270.267 33.4667ZM287.067 60.8C302.933 72 306.267 101.867 293.2 117.733C282.267 130.933 261.733 131.2 248.4 118.267L244 114.133V92V69.8667L248.4 65.7333C256.133 58.4 262.8 55.8667 273.733 56.4C279.6 56.8 282.667 57.7333 287.067 60.8Z" fill="#81AFDD"/>
<path d="M406.667 34.1333C398.933 36.1333 386.533 43.8667 383.2 48.5333C381.467 51.0667 381.333 50.5333 381.333 42.9333V34.6667H366H350.667V117.333V200H366H381.333V169.867V139.733L386.933 144.667C390 147.2 395.867 151.067 400 153.067C406.267 156.133 408.933 156.667 419.467 156.667C430.667 156.667 432.133 156.4 441.733 151.6C448.533 148.267 453.467 144.667 456.533 140.933C473.2 120.667 476.533 85.3333 464.267 60.6667C457.067 46.1333 447.2 38.1333 431.333 34C421.733 31.6 416.267 31.6 406.667 34.1333ZM426 61.6C429.867 64.4 433.333 68.6667 435.6 73.3333C438.8 79.6 439.333 82.2667 439.333 92.1333C439.333 102.133 438.8 104.4 435.333 111.333C430.133 121.467 423.2 126.533 413.067 127.6C403.333 128.533 393.867 125.467 387.467 119.067L382.667 114.267V92V69.8667L387.867 64.8C398.133 54.8 415.067 53.3333 426 61.6Z" fill="#81AFDD"/>
<path d="M544.533 33.3333C537.467 34.8 527.6 39.7333 520 45.8667L514 50.6667L513.6 43.3333L513.2 36H496.667H480V98V160H496.667H513.333V118.133V76.2667L517.333 72.9333C523.467 67.7333 535.467 63.7333 545.067 63.7333L553.333 63.6V47.8667C553.333 36 552.933 32 551.733 32.1333C550.8 32.2667 547.467 32.8 544.533 33.3333Z" fill="#81AFDD"/>
</svg>
