<svg width="659" height="150" viewBox="0 0 659 150" fill="none" xmlns="http://www.w3.org/2000/svg">
<path d="M632.75 14.399C613.691 -0.331562 577.551 0.431376 577.551 0.431376H515.461C508.209 0.431376 505.692 0.900877 506.171 3.95263C506.558 4.64524 507.118 5.22977 507.8 5.65085C508.482 6.07192 509.262 6.31561 510.067 6.35882C512.124 6.60276 514.036 7.52654 515.485 8.97765C516.934 10.4288 517.835 12.3204 518.038 14.3403C518.038 19.3875 518.817 35.2331 518.817 40.7497V85.8218C518.817 91.6906 518.817 101.902 518.817 107.947V135.941C518.817 138.873 520.002 141.685 522.113 143.764C524.225 145.842 527.091 147.017 530.084 147.033H567.123C582.882 146.895 598.483 143.931 613.151 138.289C626.842 132.702 638.506 123.222 646.637 111.076C654.767 98.9292 658.991 84.6738 658.76 70.1522C658.996 59.5404 656.779 49.0138 652.274 39.3592C647.77 29.7047 641.096 21.172 632.75 14.399ZM570.06 134.18H568.621C559.991 134.18 551.061 134.18 546.386 129.661C545.1 128.213 544.124 126.527 543.516 124.702C542.909 122.877 542.682 120.951 542.85 119.039V51.6069C542.85 37.698 542.49 31.1837 542.85 15.5728C551.387 14.3988 560 13.83 568.621 13.8708C584.983 13.8708 602.064 16.0423 616.568 31.4771C626.546 42.8754 631.73 57.5594 631.071 72.5584C631.011 110.295 607.098 134.18 570.06 134.18ZM505.931 141.516C503.925 140.718 502.149 139.449 500.759 137.823C499.369 136.196 498.408 134.26 497.96 132.185C497.96 129.544 495.143 11.9341 495.143 11.9341C495.143 6.06538 495.143 1.42906 493.645 0.842189C489.417 0.269706 485.144 0.0732787 480.879 0.255313C477.372 -0.261145 473.789 0.0816389 470.451 1.253C468.293 4.747 466.544 8.46775 465.237 12.345L454.269 36.2308L443.541 56.302L426.88 87.9346C426.594 89.1018 425.916 90.1409 424.954 90.8843C423.991 91.6276 422.801 92.0319 421.576 92.0319C420.35 92.0319 419.16 91.6276 418.198 90.8843C417.235 90.1409 416.557 89.1018 416.272 87.9346L399.011 56.7715L388.223 37.3459L376.236 12.1102C374.897 8.28338 373.192 4.58917 371.142 1.07694C367.401 0.0560888 363.493 -0.242894 359.635 0.196625H344.891C337.639 0.196625 334.343 0.196626 334.823 3.24838C335.205 3.94465 335.764 4.53222 336.447 4.95388C337.129 5.37555 337.912 5.61694 338.718 5.65457C340.538 6.4511 342.078 7.75582 343.144 9.40529C344.21 11.0548 344.755 12.9756 344.712 14.9272C344.712 17.5681 344.712 124.732 344.112 129.427C344.112 130.19 344.112 131.011 343.693 131.833C343.508 134.052 342.642 136.164 341.209 137.893C339.776 139.621 337.842 140.884 335.662 141.516C334.855 141.554 334.073 141.795 333.39 142.217C332.708 142.639 332.148 143.226 331.766 143.923C331.287 146.916 334.643 147.033 341.895 147.033H365.868C373.12 147.033 376.476 147.033 376.057 143.923C375.675 143.226 375.115 142.639 374.432 142.217C373.75 141.795 372.967 141.554 372.161 141.516C370.056 140.877 368.184 139.657 366.77 138.002C365.356 136.346 364.46 134.327 364.19 132.185C363.648 129.51 363.267 126.805 363.051 124.086C363.051 118.217 362.691 108.006 362.751 101.961V99.9068C362.751 94.0381 362.751 83.8264 363.111 77.7816L363.71 53.7784C363.71 47.9096 366.407 47.088 369.344 52.4286L385.526 81.7724C388.463 87.1129 403.985 115.87 406.742 121.269C406.957 122.365 407.392 123.407 408.022 124.336C408.653 125.265 409.467 126.061 410.415 126.679C411.364 127.296 412.429 127.722 413.547 127.932C414.666 128.142 415.816 128.131 416.931 127.901C425.082 127.901 425.082 125.788 428.438 118.746C430.895 113.581 465.596 46.7359 465.596 46.7359C468.413 41.3366 470.87 41.8648 471.05 47.9096C471.05 47.9096 471.47 129.368 471.05 133.065V134.298C470.55 136.015 469.61 137.58 468.32 138.843C467.03 140.106 465.433 141.026 463.679 141.516C462.874 141.56 462.094 141.803 461.412 142.224C460.73 142.645 460.169 143.23 459.783 143.923C459.303 146.916 462.66 147.033 469.912 147.033H499.878C507.19 147.033 510.486 147.033 510.067 143.923C509.646 143.208 509.044 142.611 508.32 142.19C507.596 141.769 506.773 141.537 505.931 141.516Z" fill="#81AFDD"/>
<path d="M179.836 15.162C180.963 11.5065 183.225 8.28593 186.309 5.94804C187.393 5.86381 188.446 5.55308 189.397 5.03678C190.348 4.52049 191.175 3.81062 191.822 2.95497C192.362 0.783531 190.384 0.196655 182.473 0.196655H158.5C151.248 0.196655 147.892 0.196655 148.371 3.3071C148.758 3.99971 149.318 4.58423 150 5.00531C150.682 5.42639 151.462 5.67007 152.267 5.71329C159.159 7.59129 163.774 11.0539 161.616 18.0964C159.459 25.1389 129.492 111.468 129.492 111.468C128.353 114.579 125.417 115.459 124.518 110.823L108.995 38.1675C107.676 32.2988 106.238 24.552 105.699 21.2068C105.317 19.7817 104.449 18.5274 103.239 17.652C102.029 16.7766 100.549 16.3328 99.0461 16.3944C97.685 16.3579 96.3424 16.7103 95.1823 17.4086C94.0222 18.1068 93.0949 19.1207 92.5134 20.3265C90.5357 24.3759 86.5201 32.064 83.7632 37.6393L44.2674 111.938C42.6492 114.696 40.6115 113.874 40.3118 110.588L35.3973 35.2918C35.3973 29.4231 34.798 17.6856 34.8579 15.8076C34.8705 13.4908 35.6737 11.2447 37.1397 9.42635C38.6058 7.60797 40.6505 6.32168 42.9488 5.77198C43.7939 5.70754 44.6092 5.43764 45.3209 4.98673C46.0325 4.53583 46.618 3.91817 47.0243 3.18972C47.5038 0.196655 43.9677 0.255343 36.7158 0.255343H6.74931C1.95467 0.372718 -0.322783 0.900906 0.0368152 3.36578C0.423311 4.05839 0.983976 4.64292 1.6657 5.064C2.34743 5.48508 3.12765 5.72876 3.93246 5.77198C5.45885 6.17798 6.8717 6.91679 8.06527 7.93311C9.25883 8.94942 10.2022 10.2169 10.8248 11.6407C11.2802 12.676 11.6803 13.7338 12.0234 14.8099V15.3967V15.8076C12.0119 16.003 12.0119 16.199 12.0234 16.3944C13.4199 23.0791 14.4006 29.8406 14.9601 36.6416L21.4928 128.664C21.3401 134.968 22.0455 141.264 23.5905 147.385C25.4484 151.2 34.1986 150.965 37.6747 145.859C38.6337 144.392 87.9585 53.7197 87.9585 53.7197C90.8353 48.3205 93.9518 48.79 95.4502 54.7761L110.913 129.485C111.864 135.047 113.206 140.537 114.928 145.918C117.026 151.317 127.574 150.378 130.391 145.096C133.243 139.72 135.745 134.173 137.883 128.488C137.883 128.488 178.158 19.9157 179.836 15.162ZM309.831 50.3745C290.592 50.3745 273.032 67.57 261.465 80.5986C262.08 76.8488 263.022 73.1575 264.281 69.5654L282.261 10.8778C282.749 9.65268 282.913 8.32676 282.738 7.0231C282.562 5.71944 282.053 4.4803 281.258 3.42068C280.463 2.36106 279.407 1.51532 278.189 0.961953C276.971 0.408586 275.63 0.165529 274.29 0.255343H259.127C251.875 0.255343 248.519 0.255343 248.939 3.36578C249.325 4.05839 249.886 4.64292 250.567 5.064C251.249 5.48508 252.029 5.72876 252.834 5.77198C260.026 7.76735 262.423 15.6315 260.506 24.1999C260.506 23.4956 242.526 93.9207 242.526 93.9207C240.282 100.867 236.402 107.2 231.198 112.407C231.198 112.407 209.443 138.406 187.507 138.406C185.219 138.629 182.909 138.365 180.735 137.632C178.561 136.899 176.575 135.714 174.913 134.159C173.25 132.604 171.951 130.714 171.104 128.621C170.257 126.528 169.883 124.28 170.007 122.032C169.93 116.762 170.493 111.502 171.685 106.362C194.579 104.25 235.574 93.9207 235.574 65.2812C235.574 53.5437 224.246 50.3745 214.597 50.3745C183.552 50.3745 152.926 87.4651 152.926 120.8C152.926 134.826 159.578 149.087 179.296 149.087C216.335 149.087 236.473 113.874 237.611 112.525C236.66 117.19 236.059 121.917 235.813 126.668C235.813 141.986 247.201 149.087 261.285 149.087C272.424 148.681 283.248 145.357 292.63 139.462C300.698 134.707 307.974 128.769 314.206 121.856C326.105 109.684 333.218 93.7783 334.283 76.96C334.223 61.3491 327.151 50.6093 310.01 50.6093L309.831 50.3745ZM209.802 57.4757C211.016 57.4 212.232 57.5853 213.364 58.0186C214.497 58.452 215.519 59.1229 216.358 59.9842C217.198 60.8455 217.835 61.8763 218.224 63.0043C218.614 64.1323 218.746 65.3301 218.612 66.5136C218.612 89.4018 192.721 99.4374 173.003 100.728C176.18 86.8195 193.141 57.4757 209.802 57.4757ZM307.373 107.243C302.743 116.476 296.678 124.95 289.393 132.361C283.123 139.189 274.41 143.392 265.061 144.099C255.232 144.099 251.995 134.885 251.995 126.492C251.995 103.017 278.126 59.3537 304.676 59.3537C314.505 59.3537 317.502 66.0441 317.502 74.0256C316.562 85.6611 313.044 96.9564 307.193 107.125L307.373 107.243Z" fill="#81AFDD"/>
<path d="M642.758 9.23449C642.758 8.28654 642.949 7.34786 643.319 6.47206C643.69 5.59627 644.233 4.8005 644.917 4.13019C645.602 3.45988 646.415 2.92817 647.309 2.5654C648.203 2.20263 649.162 2.01592 650.13 2.01592C651.098 2.01592 652.057 2.20263 652.951 2.5654C653.846 2.92817 654.658 3.45988 655.343 4.13019C656.027 4.8005 656.57 5.59627 656.941 6.47206C657.311 7.34786 657.502 8.28654 657.502 9.23449C657.502 10.1824 657.311 11.1211 656.941 11.9969C656.57 12.8727 656.027 13.6685 655.343 14.3388C654.658 15.0091 653.846 15.5408 652.951 15.9036C652.057 16.2664 651.098 16.4531 650.13 16.4531C649.162 16.4531 648.203 16.2664 647.309 15.9036C646.415 15.5408 645.602 15.0091 644.917 14.3388C644.233 13.6685 643.69 12.8727 643.319 11.9969C642.949 11.1211 642.758 10.1824 642.758 9.23449ZM650.13 18.155C651.909 18.1203 653.639 17.5728 655.102 16.5808C656.565 15.5888 657.697 14.1964 658.356 12.5777C659.015 10.9591 659.173 9.18603 658.808 7.48033C658.444 5.77464 657.574 4.212 656.307 2.98786C655.041 1.76371 653.434 0.932408 651.687 0.597905C649.941 0.263401 648.132 0.440549 646.488 1.10719C644.844 1.77384 643.437 2.90039 642.443 4.34595C641.449 5.79151 640.913 7.49191 640.9 9.23449C640.9 10.4132 641.14 11.5801 641.606 12.6669C642.072 13.7537 642.755 14.7386 643.614 15.5638C644.474 16.3891 645.493 17.0381 646.612 17.473C647.73 17.9078 648.927 18.1197 650.13 18.0963V18.155ZM648.212 9.93874H650.01L652.767 14.399H654.565L651.568 9.88006C651.938 9.88086 652.304 9.80718 652.644 9.66359C652.983 9.52 653.289 9.30956 653.542 9.04537C653.795 8.78117 653.99 8.46886 654.114 8.12784C654.239 7.78683 654.29 7.42439 654.265 7.06305C654.292 6.60687 654.207 6.15109 654.018 5.73346C653.828 5.31584 653.54 4.94839 653.177 4.66156C652.814 4.37473 652.386 4.17678 651.929 4.08411C651.472 3.99144 650.999 4.00672 650.55 4.12867H646.594V14.3403H648.212V9.93874ZM648.212 8.64762V5.4198H650.37C651.509 5.4198 652.647 5.4198 652.647 6.94568C652.647 8.47155 651.449 8.58893 650.07 8.58893H648.212V8.64762Z" fill="#81AFDD"/>
</svg>
